<?xml version="1.0" encoding="UTF-8"?><svg id="Layer_3" xmlns="http://www.w3.org/2000/svg" viewBox="0 0 1600 1600"><path d="m801.75,387.01c84.48-149.98,331.55-156.66,384.94,34.81,23.8,60.14,88.98,87.68,173.26,105.58,23.23,5.23,34.77,15.52,15.03,39.35-74.39,78.9-221.84,16.28-338.57-3.48-12.51,1.44-25.22,1.23-38.08-.28-1.08-.13-2.14.46-2.57,1.46-26.74,61.67,9.2,112.2,102,152.62,73.58,34.8,128.3,85.74,167.57,149.89,0,0,158.82,0,158.82,0,16.23,0,24.82,12.43,19.06,27.6-206.44,566.18-1070.58,582.91-1286.71-2.08-4.95-13.55,2.79-24.64,17.22-24.64h125.54s30.4,19.34,30.4,19.34c65.55-90.53,194.21-169.67,332.6-155.08,0,0,0-89.86,0-89.86.12-40.38-24.22-77.69-68.83-80.66-12.24-1.15-24.58.03-36.51,3.02-54.89,13.75-114.73,26.46-180.28,37.96-57.03,10.13-107.39.94-148.56-34.78-26.11-23.17-1.71-39.93,22.47-43.73,75.54-11.68,144.85-42.46,169.7-114.19,24.41-95.56,148.51-161.03,255.94-125.08,52.66,17.35,92.71,55.75,125.56,102.24Z" style="fill:#02131d; stroke-width:0px;"/><path d="m979.83,927.94c-8.45,117.51-160.71,216.39-351.65,159.41-13.25-8.01-26.36-17.28-39.33-27.88-3.32-2.71-7.47-4.15-11.75-4.15h-62.73c-5.16,0-10.12,2.61-12.6,7.15-10.94,23.46,36.74,61.25,53.12,75.59-103.39-34.21-181.51-89.87-234.09-164.48,43.44,20.44,81.56,38.33,128.61,37.96,0,0,343.9,0,343.9,0,36.66.73,88.17-20.77,92.81-61.09.5-10.31-3.42-16.67-12.07-18.85-9.48-2-407.17.02-416-.68-7.51,0-15.01-.33-22.49-1.02-12.14-1.11-24.66-2.85-35.47-5.77-3.97-1.07-5.23-6.09-2.18-8.86,49.46-46.63,138.09-102.34,224.87-103.14,0,0,215.12,0,215.12,0,68.83,1.1,131.45,36.47,141.91,115.81Z" style="fill:#fef9eb; stroke-width:0px;"/><path d="m752.5,465.91c-11.88,1.19-26.02,3.28-43.08,5.78-70.99,10.43-79.36,29.92-124.1,27.11-9.32-.58-58.48-3.67-92.35-35.48-.05-1.37-.08-2.73-.08-4.11,0-59.2,47.99-107.19,107.17-107.19,76.79,0,131.41,43.98,152.43,113.89Z" style="fill:#fffaee; stroke-width:0px;"/><path d="m1057.53,1098.94c58.14-112,38.86-197.94-28.94-267.54-38.2-59.36-106.34-96.43-192.57-99.88l.81-208.18c0-29.43,6.33-57.77,19.83-83.94,51.91-115.08,254.43-123.99,254.51,24.64-20.24,21.13-55.89,35.61-87.9,34.61,0,0-26.69,0-26.69,0-37.06-1.29-75.25,21.35-88.94,53.49,1.15,24.57-3.95,79.84,5.99,102.37,21.65,61.62,67.87,96.15,123.21,124.68,143.18,85.83,134.27,237.47,20.68,319.74Z" style="fill:#fef9ef; stroke-width:0px;"/><path d="m1111.17,464.05c-2.22,50.74-16.32,100.56-91.96,100.56-29.14,0-80.4-9.36-111.57-12.46,13.69-32.14,51.79-55.03,88.86-53.73,0,0,28.83-.08,28.83-.08,32.01,1,63.92-13.83,85.84-34.28Z" style="fill:#c7ced9; stroke-width:0px;"/><path d="m616.31,429.02c-1.15-45.19-67.39-45.18-68.53,0,1.15,45.19,67.39,45.18,68.53,0Z" style="fill:#02131d; stroke-width:0px;"/><path d="m1054.91,429.02c-1.15-45.19-67.39-45.18-68.53,0,1.15,45.19,67.39,45.18,68.53,0Z" style="fill:#031524; stroke-width:0px;"/><path d="m758.65,508.51v223.59h-96.39s-.42-89.44-.42-89.44c0-13.68-2.8-27.71-8.64-40.08-14.4-33.05-47.42-43.68-83.24-40.5-44.9,4-75.21-51.85-76.97-98.77,34.61,30.43,82.92,34.32,92.25,34.9,44.74,2.81,53.29-16.46,124.28-26.89,17.06-2.51,31.56-4.33,43-5.43,4.21,13.79,6.13,28.19,6.14,42.6Z" style="fill:#c8cdd7; stroke-width:0px;"/><path d="m981.48,952.14c.88,158.22-218.72,224.45-353.31,135.2,190.94,56.98,340.82-42.12,351.65-159.41,1.01,7.61,1.58,15.67,1.66,24.21Z" style="fill:#c3cbd2; stroke-width:0px;"/><path d="m1149.64,978.08c-3.26,126.73-72.76,202.93-185.98,246.34-235.08,74.16-551.49-22.82-698.23-271.51-1.72-3.02,1.55-6.42,4.63-4.83,17.04,8.83,39.78,10.69,50.75,25.51,54.86,74.09,132.64,129.42,234.09,164.48,158.35,133.99,498.54,73.15,507.64-183.26.27-47.14-5.15-94.37-33.95-123.39,67.75,68.27,88.86,154.27,28.94,267.54,49.92-38.83,87.03-87.72,82.72-187.25,5.45,20.11,9.5,41.93,9.4,66.39Z" style="fill:#c7cad5; stroke-width:0px;"/><path d="m1284.01,948.53l40.43,1.03c1.48.04,2.43,1.59,1.79,2.93-9.36,19.33-26.35,43.33-42.32,68.68-.47.74-1.61.4-1.59-.48l1.7-72.16Z" style="fill:#fef9ef; stroke-width:0px;"/></svg>